<?xml version="1.0" encoding="utf-8"?>
<!-- Generator: Adobe Illustrator 21.1.0, SVG Export Plug-In . SVG Version: 6.00 Build 0)  -->
<svg version="1.1" id="Layer_1" xmlns="http://www.w3.org/2000/svg" xmlns:xlink="http://www.w3.org/1999/xlink" x="0px" y="0px"
	 viewBox="0 0 200 22" style="enable-background:new 0 0 200 22;" xml:space="preserve">
<style type="text/css">
	.st0{fill-rule:evenodd;clip-rule:evenodd;fill:#757575;}
	.st1{fill-rule:evenodd;clip-rule:evenodd;fill:#E42C11;}
</style>
<g>
	<path class="st0" d="M26.1,21.8V5.6h2.6l11.4,9.6c0.5,0.4,0.8,0.6,1,0.9c0.2,0.2,0.5,0.5,0.8,0.9c0-0.5-0.1-0.8-0.1-1.1
		c0-0.3,0-0.5-0.1-0.8c0-0.3,0-0.5,0-0.9V5.6h3.4v16.2h-2.6l-11.9-10c-0.3-0.3-0.6-0.5-0.8-0.7c-0.3-0.3-0.5-0.5-0.6-0.6
		c0,0.2,0,0.4,0.1,0.7c0,0.3,0.1,0.5,0.1,0.7c0,0.3,0,0.7,0,1.2v8.8H26.1L26.1,21.8z M52.2,21.8V5.6h3.8l0,16.2H52.2L52.2,21.8z
		 M62.9,21.8V5.6h2.6l11.4,9.6c0.5,0.4,0.8,0.6,1,0.9c0.2,0.2,0.5,0.5,0.8,0.9c0-0.5-0.1-0.8-0.1-1.1c0-0.3,0-0.5-0.1-0.8
		c0-0.3,0-0.5,0-0.9V5.6H82v16.2h-2.6l-11.9-10c-0.3-0.3-0.6-0.5-0.8-0.7c-0.3-0.3-0.5-0.5-0.6-0.6c0,0.2,0,0.4,0.1,0.7
		c0,0.3,0.1,0.5,0.1,0.7c0,0.3,0,0.7,0,1.2v8.8H62.9z"/>
	<path class="st0" d="M150.3,17.7v-1.9h4.9v4.5c-0.5,0.5-1.2,0.9-2.1,1.2c-0.9,0.4-1.8,0.5-2.7,0.5c-1.2,0-2.2-0.2-3.1-0.7
		c-0.9-0.5-1.5-1.2-2-2.1c-0.4-0.9-0.7-1.9-0.7-3c0-1.2,0.2-2.2,0.7-3.1c0.5-0.9,1.2-1.6,2.2-2.1c0.7-0.4,1.6-0.6,2.7-0.6
		c1.4,0,2.5,0.3,3.3,0.9c0.8,0.6,1.3,1.4,1.5,2.4l-2.3,0.4c-0.2-0.6-0.5-1-0.9-1.3c-0.4-0.3-1-0.5-1.6-0.5c-1,0-1.8,0.3-2.4,0.9
		c-0.6,0.6-0.9,1.6-0.9,2.8c0,1.3,0.3,2.3,0.9,3c0.6,0.7,1.4,1,2.3,1c0.5,0,1-0.1,1.4-0.3c0.5-0.2,0.9-0.4,1.2-0.7v-1.4H150.3
		L150.3,17.7z M157.1,21.8V10.5h4.8c1.2,0,2.1,0.1,2.6,0.3c0.5,0.2,1,0.6,1.3,1.1c0.3,0.5,0.5,1.1,0.5,1.8c0,0.8-0.2,1.5-0.7,2.1
		c-0.5,0.6-1.2,0.9-2.2,1c0.5,0.3,0.9,0.6,1.2,0.9c0.3,0.3,0.7,1,1.3,1.8l1.4,2.2h-2.7l-1.6-2.5c-0.6-0.9-1-1.4-1.2-1.7
		c-0.2-0.2-0.4-0.4-0.7-0.5c-0.2-0.1-0.6-0.1-1.2-0.1h-0.5v4.7H157.1L157.1,21.8z M159.4,15.3h1.7c1.1,0,1.8,0,2-0.1
		c0.3-0.1,0.5-0.3,0.6-0.5c0.2-0.2,0.2-0.5,0.2-0.8c0-0.4-0.1-0.7-0.3-0.9c-0.2-0.2-0.5-0.4-0.9-0.4c-0.2,0-0.7,0-1.7,0h-1.8V15.3
		L159.4,15.3z M167.8,16.2c0-1.1,0.2-2.1,0.5-2.9c0.3-0.6,0.6-1.1,1-1.5c0.4-0.5,0.9-0.8,1.5-1c0.7-0.3,1.5-0.4,2.4-0.4
		c1.7,0,3,0.5,4,1.5c1,1,1.5,2.5,1.5,4.3c0,1.8-0.5,3.2-1.5,4.3c-1,1-2.3,1.5-4,1.5c-1.7,0-3-0.5-4-1.5
		C168.3,19.4,167.8,18,167.8,16.2L167.8,16.2z M170.1,16.2c0,1.3,0.3,2.2,0.9,2.9c0.6,0.7,1.3,1,2.2,1c0.9,0,1.7-0.3,2.2-1
		c0.6-0.7,0.9-1.6,0.9-2.9c0-1.3-0.3-2.3-0.9-2.9c-0.6-0.6-1.3-1-2.3-1c-0.9,0-1.7,0.3-2.3,1C170.4,13.9,170.1,14.9,170.1,16.2
		L170.1,16.2z M180.2,10.5h2.3v6.1c0,1,0,1.6,0.1,1.9c0.1,0.5,0.3,0.8,0.7,1.1c0.4,0.3,0.9,0.4,1.5,0.4c0.6,0,1.1-0.1,1.4-0.4
		c0.3-0.3,0.5-0.6,0.6-1c0.1-0.4,0.1-1,0.1-1.9v-6.2h2.3v5.9c0,1.4-0.1,2.3-0.2,2.9c-0.1,0.6-0.3,1-0.7,1.4
		c-0.3,0.4-0.8,0.7-1.3,0.9c-0.6,0.2-1.3,0.3-2.2,0.3c-1.1,0-1.9-0.1-2.4-0.4s-1-0.6-1.3-1c-0.3-0.4-0.5-0.8-0.6-1.2
		c-0.1-0.6-0.2-1.6-0.2-2.9V10.5L180.2,10.5z M191.4,21.8V10.5h3.6c1.4,0,2.3,0.1,2.7,0.2c0.6,0.2,1.2,0.5,1.6,1.1
		c0.4,0.6,0.7,1.3,0.7,2.2c0,0.7-0.1,1.3-0.4,1.7c-0.3,0.5-0.6,0.8-1,1.1c-0.4,0.3-0.8,0.4-1.2,0.5c-0.5,0.1-1.3,0.2-2.4,0.2h-1.5
		v4.2H191.4L191.4,21.8z M193.7,12.4v3.2h1.2c0.9,0,1.5-0.1,1.8-0.2c0.3-0.1,0.5-0.3,0.7-0.6c0.2-0.3,0.3-0.5,0.3-0.9
		c0-0.4-0.1-0.7-0.4-1c-0.2-0.3-0.5-0.4-0.9-0.5c-0.3,0-0.8-0.1-1.6-0.1H193.7z"/>
	<path class="st1" d="M103.8,8.5H92v10.3h11.8v-3.6h-6.2v-2.8h9.8V18c0,1.5-0.3,2.5-0.8,3c-0.6,0.5-1.7,0.8-3.2,0.8H92.3
		c-1.6,0-2.6-0.3-3.2-0.8c-0.5-0.6-0.8-1.6-0.8-3V9.4c0-1.5,0.3-2.5,0.8-3c0.6-0.6,1.7-0.8,3.2-0.8h11.2c1.6,0,2.6,0.3,3.2,0.8
		c0.6,0.5,0.9,1.5,0.9,2.9v0.4l-3.7,0.7V8.5L103.8,8.5z M113.8,9.4c0-1.5,0.3-2.5,0.8-3c0.6-0.6,1.7-0.8,3.2-0.8h11.9
		c1.6,0,2.6,0.3,3.2,0.8c0.6,0.5,0.9,1.5,0.9,3V18c0,1.5-0.3,2.5-0.9,3c-0.5,0.5-1.6,0.8-3.2,0.8h-11.9c-1.6,0-2.6-0.3-3.2-0.8
		c-0.5-0.6-0.8-1.6-0.8-3V9.4L113.8,9.4z M117.6,18.7h12.5V8.5h-12.5V18.7z"/>
	<path class="st0" d="M7.3,15.3h7.1l-3.5-6.6L7.3,15.3L7.3,15.3z M0,21.8L9.1,5.6h3.7l9.3,16.2h-4.2l-1.9-3.6H5.6l-1.9,3.6H0z"/>
	<rect x="62.9" class="st1" width="71" height="2.3"/>
	<rect x="52.2" class="st1" width="3.8" height="2.3"/>
</g>
</svg>
