<?xml version="1.0" encoding="utf-8"?>
<!-- Generator: Adobe Illustrator 21.1.0, SVG Export Plug-In . SVG Version: 6.00 Build 0)  -->
<svg version="1.1" id="Layer_1" xmlns="http://www.w3.org/2000/svg" xmlns:xlink="http://www.w3.org/1999/xlink" x="0px" y="0px"
	 viewBox="0 0 40 40" style="enable-background:new 0 0 40 40;" xml:space="preserve">
<style type="text/css">
	.st0{fill:#BDBDBD;}
</style>
<path class="st0" d="M20,2c10,0,18,8.1,18,18s-8,18-18,18S2,30,2,20S10.1,2,20,2 M20,0C8.9,0,0,8.9,0,20s8.9,20,20,20s20-9,20-20
	S31,0,20,0L20,0z"/>
<g id="XMLID_1_">
	<path id="XMLID_6_" class="st0" d="M20,30.2c-2.8,0-3.1,0-4.2,0c-1,0-1.8-0.2-2.5-0.5s-1.2-0.6-1.8-1.2c-0.6-0.5-0.9-1.1-1.2-1.8
		C10,26,9.9,25.2,9.8,24.2c-0.1-1.1-0.1-1.5-0.1-4.2s0-3.1,0.1-4.2c0.1-1,0.2-1.8,0.5-2.5s0.6-1.2,1.2-1.8s1.1-0.9,1.8-1.2
		c0.8-0.3,1.5-0.4,2.5-0.5c1.1-0.1,1.4-0.1,4.2-0.1s3.1,0,4.2,0.1c1,0.1,1.8,0.2,2.5,0.5s1.2,0.6,1.8,1.2s0.9,1.1,1.2,1.8
		c0.3,0.8,0.5,1.5,0.5,2.5c0,1.1,0,1.4,0,4.2s0,3.1,0,4.2c0,1-0.2,1.8-0.5,2.5s-0.6,1.2-1.2,1.8c-0.5,0.5-1.1,0.9-1.8,1.2
		c-0.8,0.3-1.5,0.5-2.5,0.5C23.1,30.2,22.8,30.2,20,30.2z M20,11.6c-2.8,0-3,0-4.1,0.1c-1,0.1-1.6,0.2-1.9,0.4
		c-0.5,0.2-0.8,0.4-1.1,0.8c-0.4,0.4-0.6,0.7-0.8,1.1c-0.1,0.4-0.3,0.9-0.4,1.9c-0.1,1.1-0.1,1.4-0.1,4.2s0,3,0.1,4.1
		c0.1,1,0.2,1.5,0.4,1.9c0.2,0.5,0.4,0.8,0.8,1.1s0.7,0.6,1.1,0.8c0.4,0.1,0.9,0.3,1.9,0.4c1.1,0,1.4,0,4.1,0s3,0,4.1,0
		c1,0,1.5-0.2,1.9-0.4c0.5-0.2,0.8-0.4,1.1-0.8s0.6-0.7,0.8-1.1c0.1-0.4,0.3-0.9,0.4-1.9c0-1.1,0-1.4,0-4.1s0-3,0-4.1
		c0-1-0.2-1.6-0.4-1.9c-0.2-0.5-0.4-0.8-0.8-1.1c-0.4-0.4-0.7-0.6-1.1-0.8c-0.4-0.1-0.9-0.3-1.9-0.4C23,11.6,22.8,11.6,20,11.6z"/>
	<path id="XMLID_3_" class="st0" d="M20,14.8c-2.9,0-5.2,2.3-5.2,5.2s2.3,5.2,5.2,5.2s5.2-2.3,5.2-5.2S22.9,14.8,20,14.8 M20,23.4
		c-1.9,0-3.4-1.5-3.4-3.4s1.5-3.4,3.4-3.4s3.4,1.5,3.4,3.4S21.9,23.4,20,23.4"/>
	<path id="XMLID_2_" class="st0" d="M26.7,14.6c0,0.7-0.5,1.2-1.2,1.2s-1.2-0.6-1.2-1.2s0.5-1.2,1.2-1.2
		C26.1,13.3,26.7,13.9,26.7,14.6"/>
</g>
</svg>
