<?xml version="1.0" encoding="utf-8"?>
<!-- Generator: Adobe Illustrator 21.1.0, SVG Export Plug-In . SVG Version: 6.00 Build 0)  -->
<svg version="1.1" id="Layer_1" xmlns="http://www.w3.org/2000/svg" xmlns:xlink="http://www.w3.org/1999/xlink" x="0px" y="0px"
	 viewBox="0 0 32 32" style="enable-background:new 0 0 32 32;" xml:space="preserve">
<style type="text/css">
	.st0{fill:#E42C11;}
	.st1{fill:#FFFFFF;}
</style>
<g>
	<circle class="st0" cx="16" cy="16" r="10"/>
	<g>
		<path class="st1" d="M10,12c0-0.4,0.1-0.7,0.2-1.1c0.1-0.3,0.3-0.6,0.5-0.9c0.2-0.2,0.5-0.4,0.9-0.6c0.4-0.1,0.8-0.2,1.2-0.2
			c0.5,0,0.9,0.1,1.2,0.2c0.4,0.1,0.7,0.3,0.9,0.6c0.2,0.2,0.4,0.5,0.5,0.9c0.1,0.3,0.2,0.7,0.2,1.1v0.7c0,0.4-0.1,0.7-0.2,1
			c-0.1,0.3-0.3,0.6-0.5,0.9S14.4,15,14,15.2c-0.4,0.1-0.8,0.2-1.2,0.2c-0.5,0-0.9-0.1-1.2-0.2s-0.7-0.3-0.9-0.6s-0.4-0.5-0.5-0.9
			c-0.1-0.3-0.2-0.7-0.2-1V12z M11.7,12.7c0,0.2,0,0.3,0.1,0.5c0,0.1,0.1,0.3,0.2,0.4c0.1,0.1,0.2,0.2,0.4,0.3
			c0.1,0.1,0.3,0.1,0.5,0.1s0.3,0,0.5-0.1c0.1-0.1,0.3-0.2,0.3-0.3c0.1-0.1,0.2-0.2,0.2-0.4s0.1-0.3,0.1-0.5V12c0-0.2,0-0.3-0.1-0.5
			c0-0.1-0.1-0.3-0.2-0.4c-0.1-0.1-0.2-0.2-0.3-0.3s-0.3-0.1-0.5-0.1s-0.3,0-0.5,0.1c-0.1,0.1-0.3,0.2-0.3,0.3
			c-0.1,0.1-0.2,0.2-0.2,0.4c0,0.1-0.1,0.3-0.1,0.5L11.7,12.7L11.7,12.7z M13.4,21.6l-1.3-0.7l6.4-10.3l1.3,0.7L13.4,21.6z
			 M16.3,19.4c0-0.4,0.1-0.7,0.2-1s0.3-0.6,0.6-0.9c0.2-0.2,0.5-0.4,0.9-0.6c0.4-0.1,0.8-0.2,1.2-0.2c0.5,0,0.9,0.1,1.2,0.2
			c0.4,0.1,0.7,0.3,0.9,0.6s0.4,0.5,0.5,0.9c0.1,0.3,0.2,0.7,0.2,1v0.7c0,0.4-0.1,0.7-0.2,1s-0.3,0.6-0.5,0.9
			c-0.2,0.2-0.5,0.4-0.9,0.6c-0.4,0.1-0.8,0.2-1.2,0.2c-0.5,0-0.9-0.1-1.2-0.2c-0.4-0.1-0.7-0.3-0.9-0.6c-0.2-0.2-0.4-0.5-0.6-0.9
			c-0.1-0.3-0.2-0.7-0.2-1V19.4z M18,20.1c0,0.2,0,0.3,0.1,0.5c0.1,0.1,0.1,0.3,0.2,0.4s0.2,0.2,0.4,0.3c0.1,0.1,0.3,0.1,0.5,0.1
			s0.4,0,0.5-0.1S20,21.1,20,21c0.1-0.1,0.1-0.2,0.2-0.4c0-0.1,0-0.3,0-0.5v-0.7c0-0.2,0-0.3-0.1-0.5c0-0.1-0.1-0.3-0.2-0.4
			s-0.2-0.2-0.4-0.3c-0.1-0.1-0.3-0.1-0.5-0.1s-0.4,0-0.5,0.1s-0.3,0.2-0.4,0.3c-0.1,0.1-0.2,0.2-0.2,0.4c0,0.1-0.1,0.3-0.1,0.5v0.7
			H18z"/>
	</g>
</g>
</svg>
