<?xml version="1.0" encoding="utf-8"?>
<!-- Generator: Adobe Illustrator 21.1.0, SVG Export Plug-In . SVG Version: 6.00 Build 0)  -->
<svg version="1.1" id="Layer_1" xmlns="http://www.w3.org/2000/svg" xmlns:xlink="http://www.w3.org/1999/xlink" x="0px" y="0px"
	 viewBox="0 0 40 40" style="enable-background:new 0 0 40 40;" xml:space="preserve">
<style type="text/css">
	.st0{fill:#BDBDBD;}
</style>
<g>
	<path class="st0" d="M20,2c10,0,18,8.1,18,18s-8,18-18,18S2,30,2,20S10.1,2,20,2 M20,0C8.9,0,0,8.9,0,20s8.9,20,20,20s20-9,20-20
		S31,0,20,0L20,0z"/>
	<path class="st0" d="M30.3,26.5c-0.2,0.1-0.5,0.1-0.8,0.1c-1,0-2,0-3.1,0c-0.7,0-1.3-0.4-1.8-0.8c-0.5-0.5-0.9-0.9-1.2-1.4
		c-0.2-0.2-0.5-0.5-0.8-0.7c-0.5-0.2-0.9-0.1-1.1,0.2c-0.2,0.5-0.4,1-0.4,1.5c0,0.8-0.2,1-1,1c-1.8,0.1-3.3-0.1-4.8-1
		c-1.3-0.8-2.2-1.8-3.1-3C10.4,20,9.1,17.5,8.1,15c-0.2-0.6-0.1-0.9,0.6-0.9c1.1,0,2.1,0,3.2,0c0.4,0,0.8,0.2,0.9,0.6
		c0.6,1.4,1.3,2.8,2.1,4c0.2,0.4,0.5,0.8,0.9,1s0.7,0.1,0.9-0.2c0.1-0.4,0.1-0.6,0.1-1c0.1-1,0.1-1.9-0.1-2.9
		c-0.1-0.6-0.5-1.1-1.1-1.2c-0.4-0.1-0.2-0.1-0.1-0.4c0.2-0.4,0.6-0.4,1.1-0.5c1.2-0.1,2.5-0.1,3.7,0c0.6,0.1,0.8,0.4,0.9,0.9
		c-0.1,0.7-0.2,1.4-0.2,2.1c0,0.6,0,1.1,0,1.8c0,0.1,0,0.1,0,0.2c0.1,0.4,0.1,0.8,0.5,1c0.4,0.1,0.6-0.1,0.9-0.5
		c1-1.2,1.8-2.5,2.4-4c0.1-0.2,0.2-0.6,0.4-0.9c0.1-0.4,0.4-0.4,0.7-0.4c1.2,0,2.5,0,3.7,0c0.1,0,0.2,0,0.5,0.1
		c0.5,0.1,0.6,0.4,0.5,0.9c-0.1,0.7-0.6,1.3-1,1.8c-0.7,1-1.4,1.9-2,2.9c-0.9,1.1-0.8,1.5,0.1,2.4c0.9,0.8,1.8,1.5,2.4,2.6
		c0.1,0.2,0.4,0.5,0.5,0.8C30.8,26,30.6,26.3,30.3,26.5z"/>
</g>
</svg>
