<?xml version="1.0" encoding="utf-8"?>
<!-- Generator: Adobe Illustrator 20.1.0, SVG Export Plug-In . SVG Version: 6.00 Build 0)  -->
<svg version="1.1" id="Layer_6" xmlns="http://www.w3.org/2000/svg" xmlns:xlink="http://www.w3.org/1999/xlink" x="0px" y="0px"
	 viewBox="0 0 65 39" style="enable-background:new 0 0 65 39;" xml:space="preserve">
<style type="text/css">
	.Arched_x0020_Green{fill:url(#SVGID_1_);stroke:#FFFFFF;stroke-width:0.25;stroke-miterlimit:1;}
	.st0{fill:#BABABA;}
	.st1{fill:#A9A9A9;}
	.st2{fill:#9D9D9D;}
	.st3{fill:#8D8D8D;}
	.st4{fill:#7D7D7D;}
	.st5{fill:#606060;}
	.st6{fill:#D8D8D8;}
</style>
<linearGradient id="SVGID_1_" gradientUnits="userSpaceOnUse" x1="91.0547" y1="317.1404" x2="91.7618" y2="316.4333">
	<stop  offset="0" style="stop-color:#1EAA4B"/>
	<stop  offset="0.9831" style="stop-color:#19351B"/>
</linearGradient>
<g>
	<ellipse transform="matrix(0.7075 -0.7067 0.7067 0.7075 -10.0092 33.9067)" class="st0" cx="36" cy="29" rx="5.2" ry="2.9"/>
	<ellipse class="st1" cx="45.8" cy="33.1" rx="2.9" ry="5.2"/>
	<ellipse transform="matrix(0.7069 -0.7073 0.7073 0.7069 -4.2226 47.8988)" class="st2" cx="55.7" cy="29" rx="2.9" ry="5.2"/>
	<ellipse class="st3" cx="59.8" cy="19.2" rx="5.2" ry="2.9"/>
	<ellipse transform="matrix(0.7073 -0.7069 0.7069 0.7073 9.7141 42.0907)" class="st4" cx="55.7" cy="9.3" rx="5.2" ry="2.9"/>
	<ellipse class="st5" cx="45.8" cy="5.2" rx="2.9" ry="5.2"/>
	<ellipse transform="matrix(0.7071 -0.7071 0.7071 0.7071 3.9439 28.1524)" class="st6" cx="36" cy="9.3" rx="2.9" ry="5.2"/>
	<path class="st5" d="M49,12.6v2.2h2.5v1.3H49v4.7c0,1.1,0.3,1.8,1.3,1.8c0.5,0,0.8-0.1,1.1-0.1l0.1,1.3c-0.4,0.1-0.9,0.3-1.6,0.3
		c-0.8,0-1.5-0.3-1.9-0.7c-0.5-0.5-0.7-1.4-0.7-2.4v-4.8h-1.5v-1.3h1.5v-1.7L49,12.6z"/>
	<path class="st5" d="M43.2,13.2c-0.6,0-1-0.5-1-1c0-0.6,0.4-1,1.1-1c0.6,0,1.1,0.5,1.1,1C44.3,12.7,43.9,13.2,43.2,13.2L43.2,13.2z
		 M42.4,23.7v-9h1.7v9H42.4z"/>
	<path d="M33.1,19.6c0,2,1.5,3,3.4,3c1.4,0,2.1-0.2,2.8-0.5l0.3,1.2C39,23.6,37.9,24,36.3,24c-3,0-4.8-1.9-4.8-4.5
		c0-2.6,1.7-4.9,4.6-4.9c3.3,0,4.1,2.8,4.1,4.3c0,0.3,0,0.6-0.1,0.7H33.1z M38.5,18.4c0-0.8-0.3-2.7-2.6-2.7c-1.9,0-2.7,1.6-2.9,2.7
		H38.5z"/>
	<path d="M23.3,14.8l2,5c0.4,0.9,0.6,1.6,0.9,2.4h0c0.2-0.7,0.5-1.5,0.9-2.4l2-5h1.8l-3.9,9h-1.7l-3.8-9H23.3z"/>
	<path d="M18.9,13.2c-0.6,0-1-0.5-1-1c0-0.6,0.4-1,1.1-1c0.6,0,1.1,0.5,1.1,1C19.9,12.7,19.5,13.2,18.9,13.2L18.9,13.2z M18,23.7v-9
		h1.7v9H18z"/>
	<path d="M13.4,10.5h1.7v13.3h-1.7V10.5z"/>
	<path d="M3.2,19.8l-1.4,4H0l4.7-12.5h2.1l4.8,12.5H9.7l-1.5-4H3.2z M7.8,18.5l-1.4-3.7c-0.3-0.8-0.5-1.4-0.7-2.1h0
		c-0.2,0.7-0.4,1.3-0.6,2.1l-1.4,3.8H7.8z"/>
</g>
</svg>
