<?xml version="1.0" encoding="utf-8"?>
<!-- Generator: Adobe Illustrator 21.1.0, SVG Export Plug-In . SVG Version: 6.00 Build 0)  -->
<svg version="1.1" id="Layer_1" xmlns="http://www.w3.org/2000/svg" xmlns:xlink="http://www.w3.org/1999/xlink" x="0px" y="0px"
	 viewBox="0 0 353 254" style="enable-background:new 0 0 353 254;" xml:space="preserve">
<style type="text/css">
	.st0{fill:#424242;}
</style>
<g>
	<path class="st0" d="M5.9,13.2l8.6,13.2H9.8L0,13.5v-0.6L9.8,0h4.7L5.9,13.2z M16.9,13.2l8.6,13.2h-4.7L11,13.5v-0.6L20.8,0h4.7
		L16.9,13.2z"/>
</g>
<g>
	<polygon class="st0" points="342,218 345,218 345,11 34,11 34,14 342,14 	"/>
	<polygon class="st0" points="319,241 11,241 11,37 8,37 8,244 319,244 	"/>
</g>
<g>
	<path class="st0" d="M347.1,240.8l-8.6-13.2h4.7l9.8,12.9v0.6l-9.8,12.9h-4.7L347.1,240.8z M336.1,240.8l-8.6-13.2h4.7l9.8,12.9
		v0.6l-9.8,12.9h-4.7L336.1,240.8z"/>
</g>
</svg>
