<?xml version="1.0" encoding="utf-8"?>
<!-- Generator: Adobe Illustrator 21.1.0, SVG Export Plug-In . SVG Version: 6.00 Build 0)  -->
<svg version="1.1" id="Layer_1" xmlns="http://www.w3.org/2000/svg" xmlns:xlink="http://www.w3.org/1999/xlink" x="0px" y="0px"
	 viewBox="0 0 64 64" style="enable-background:new 0 0 64 64;" xml:space="preserve">
<style type="text/css">
	.st0{fill:#E42C11;}
</style>
<g id="Page-1">
	<path class="st0" d="M18.4,9.2c0.3,0.1,0.7,0.3,0.9,0.5c1.4,1,5.4,6.1,6.7,8.6c0.7,1.5,1,2.5,0.8,3.3c-0.2,0.9-0.6,1.3-2.4,2.8
		c-0.7,0.6-1.4,1.2-1.5,1.3c-0.3,0.4-0.5,1.2-0.5,1.7c0,1.3,0.8,3.5,1.9,5.3c0.8,1.4,2.3,3.1,3.8,4.5c1.7,1.6,3.3,2.7,5,3.5
		c2.2,1.1,3.6,1.4,4.6,0.9c0.2-0.1,0.5-0.3,0.6-0.3c0.1-0.1,0.7-0.8,1.3-1.6c1.2-1.5,1.5-1.8,2.3-2.1c1.1-0.4,2.2-0.3,3.2,0.3
		c0.8,0.4,2.6,1.6,3.8,2.4c1.5,1.1,4.8,3.8,5.3,4.3c0.8,1,0.9,2.2,0.4,3.6c-0.6,1.4-2.7,4.1-4.2,5.3c-1.4,1-2.3,1.4-3.6,1.5
		c-1.1,0.1-1.5,0-2.8-0.6C33.2,50,24.7,43.5,18,34.5c-3.5-4.7-6.2-9.5-8-14.6C9,17,8.9,15.8,9.8,14.3c0.4-0.6,2-2.2,3.2-3.1
		c1.9-1.4,2.8-2,3.6-2.1C17,8.9,17.8,9,18.4,9.2L18.4,9.2z"/>
</g>
</svg>
