<?xml version="1.0" encoding="utf-8"?>
<!-- Generator: Adobe Illustrator 21.1.0, SVG Export Plug-In . SVG Version: 6.00 Build 0)  -->
<svg version="1.1" id="Layer_1" xmlns="http://www.w3.org/2000/svg" xmlns:xlink="http://www.w3.org/1999/xlink" x="0px" y="0px"
	 viewBox="0 0 40 40" style="enable-background:new 0 0 40 40;" xml:space="preserve">
<style type="text/css">
	.st0{fill:#424242;}
</style>
<g>
	<path class="st0" d="M20,2c10,0,18,8.1,18,18s-8,18-18,18S2,30,2,20S10.1,2,20,2 M20,0C8.9,0,0,8.9,0,20s8.9,20,20,20s20-9,20-20
		S31,0,20,0L20,0z"/>
	<path id="XMLID_176_" class="st0" d="M18.2,27.3c-4-0.1-5.4-0.1-6.2-0.3c-0.6-0.1-1.1-0.4-1.4-0.7c-0.3-0.3-0.5-0.7-0.7-1.3
		c-0.1-0.5-0.2-0.9-0.3-1.9c-0.1-2.3-0.2-4.1,0-6.2c0.1-1.1,0.2-2.5,1-3.3c0.4-0.4,0.9-0.6,1.4-0.7c0.8-0.2,4.3-0.3,7.9-0.3
		s7.1,0.1,7.9,0.3c0.7,0.1,1.3,0.5,1.6,1c0.8,1.2,0.8,2.7,0.9,3.9c0,0.6,0,3.8,0,4.4c-0.1,1.9-0.2,2.5-0.5,3.2
		c-0.2,0.4-0.3,0.7-0.6,0.9c-0.4,0.4-0.9,0.7-1.5,0.7C24.5,27.3,21.5,27.4,18.2,27.3L18.2,27.3z M23.5,19.8c-1.9-1-3.8-2-5.6-3v5.9
		C19.8,21.6,21.9,20.7,23.5,19.8L23.5,19.8L23.5,19.8z"/>
</g>
</svg>
